<mxfile host="app.diagrams.net" modified="2021-04-24T10:52:01.377Z" agent="5.0 (Windows NT 10.0; Win64; x64) AppleWebKit/537.36 (KHTML, like Gecko) Chrome/90.0.4430.85 Safari/537.36" etag="JfkCz47nhvRnNBjA7rzV" version="14.6.5" type="github">
  <diagram id="bVlrGydBAIIaootNTzmG" name="Page-1">
    <mxGraphModel dx="1038" dy="539" grid="1" gridSize="10" guides="1" tooltips="1" connect="1" arrows="1" fold="1" page="1" pageScale="1" pageWidth="827" pageHeight="1169" math="0" shadow="0">
      <root>
        <mxCell id="0" />
        <mxCell id="1" parent="0" />
        <mxCell id="0x4nhcebt7O5hJBVqaJ_-1" value="" style="endArrow=none;dashed=1;html=1;dashPattern=1 3;strokeWidth=2;" edge="1" parent="1">
          <mxGeometry width="50" height="50" relative="1" as="geometry">
            <mxPoint x="50" y="500" as="sourcePoint" />
            <mxPoint x="820" y="500" as="targetPoint" />
          </mxGeometry>
        </mxCell>
        <mxCell id="0x4nhcebt7O5hJBVqaJ_-2" value="SAP Table" style="text;html=1;resizable=0;autosize=1;align=center;verticalAlign=middle;points=[];fillColor=none;strokeColor=none;rounded=0;" vertex="1" parent="1">
          <mxGeometry x="30" y="510" width="70" height="20" as="geometry" />
        </mxCell>
        <mxCell id="0x4nhcebt7O5hJBVqaJ_-3" value="SAP FACT" style="text;html=1;resizable=0;autosize=1;align=center;verticalAlign=middle;points=[];fillColor=none;strokeColor=none;rounded=0;" vertex="1" parent="1">
          <mxGeometry x="30" y="350" width="70" height="20" as="geometry" />
        </mxCell>
        <mxCell id="0x4nhcebt7O5hJBVqaJ_-4" value="" style="endArrow=none;dashed=1;html=1;dashPattern=1 3;strokeWidth=2;" edge="1" parent="1">
          <mxGeometry width="50" height="50" relative="1" as="geometry">
            <mxPoint x="60" y="350" as="sourcePoint" />
            <mxPoint x="820" y="350" as="targetPoint" />
          </mxGeometry>
        </mxCell>
        <mxCell id="0x4nhcebt7O5hJBVqaJ_-5" value="SAP Composite" style="text;html=1;resizable=0;autosize=1;align=center;verticalAlign=middle;points=[];fillColor=none;strokeColor=none;rounded=0;" vertex="1" parent="1">
          <mxGeometry x="30" y="180" width="100" height="20" as="geometry" />
        </mxCell>
        <mxCell id="0x4nhcebt7O5hJBVqaJ_-6" value="" style="endArrow=none;dashed=1;html=1;dashPattern=1 3;strokeWidth=2;" edge="1" parent="1">
          <mxGeometry width="50" height="50" relative="1" as="geometry">
            <mxPoint x="70" y="180" as="sourcePoint" />
            <mxPoint x="820" y="180" as="targetPoint" />
          </mxGeometry>
        </mxCell>
        <mxCell id="0x4nhcebt7O5hJBVqaJ_-7" value="BKPF" style="shape=cylinder3;whiteSpace=wrap;html=1;boundedLbl=1;backgroundOutline=1;size=15;" vertex="1" parent="1">
          <mxGeometry x="119" y="540" width="60" height="80" as="geometry" />
        </mxCell>
        <mxCell id="0x4nhcebt7O5hJBVqaJ_-8" value="BSEG" style="shape=cylinder3;whiteSpace=wrap;html=1;boundedLbl=1;backgroundOutline=1;size=15;" vertex="1" parent="1">
          <mxGeometry x="339" y="540" width="60" height="80" as="geometry" />
        </mxCell>
        <mxCell id="0x4nhcebt7O5hJBVqaJ_-9" value="ZIFIGLB_AccountingDoc" style="rounded=1;whiteSpace=wrap;html=1;" vertex="1" parent="1">
          <mxGeometry x="179" y="390" width="150" height="60" as="geometry" />
        </mxCell>
        <mxCell id="0x4nhcebt7O5hJBVqaJ_-10" value="" style="shape=flexArrow;endArrow=classic;html=1;" edge="1" parent="1" source="0x4nhcebt7O5hJBVqaJ_-7" target="0x4nhcebt7O5hJBVqaJ_-9">
          <mxGeometry width="50" height="50" relative="1" as="geometry">
            <mxPoint x="330" y="550" as="sourcePoint" />
            <mxPoint x="380" y="500" as="targetPoint" />
          </mxGeometry>
        </mxCell>
        <mxCell id="0x4nhcebt7O5hJBVqaJ_-11" value="" style="shape=flexArrow;endArrow=classic;html=1;exitX=0.145;exitY=0;exitDx=0;exitDy=4.35;exitPerimeter=0;" edge="1" parent="1" source="0x4nhcebt7O5hJBVqaJ_-8" target="0x4nhcebt7O5hJBVqaJ_-9">
          <mxGeometry width="50" height="50" relative="1" as="geometry">
            <mxPoint x="420" y="510" as="sourcePoint" />
            <mxPoint x="470" y="460" as="targetPoint" />
          </mxGeometry>
        </mxCell>
        <mxCell id="0x4nhcebt7O5hJBVqaJ_-12" value="" style="edgeStyle=entityRelationEdgeStyle;fontSize=12;html=1;endArrow=ERoneToMany;startArrow=ERmandOne;" edge="1" parent="1" source="0x4nhcebt7O5hJBVqaJ_-7" target="0x4nhcebt7O5hJBVqaJ_-8">
          <mxGeometry width="100" height="100" relative="1" as="geometry">
            <mxPoint x="280" y="760" as="sourcePoint" />
            <mxPoint x="380" y="660" as="targetPoint" />
          </mxGeometry>
        </mxCell>
        <mxCell id="0x4nhcebt7O5hJBVqaJ_-13" value="EKKN" style="shape=cylinder3;whiteSpace=wrap;html=1;boundedLbl=1;backgroundOutline=1;size=15;" vertex="1" parent="1">
          <mxGeometry x="509" y="540" width="60" height="80" as="geometry" />
        </mxCell>
        <mxCell id="0x4nhcebt7O5hJBVqaJ_-14" value="ZIMMKEB_PurchaseAssignment" style="rounded=1;whiteSpace=wrap;html=1;" vertex="1" parent="1">
          <mxGeometry x="549" y="390" width="190" height="60" as="geometry" />
        </mxCell>
        <mxCell id="0x4nhcebt7O5hJBVqaJ_-15" value="" style="shape=flexArrow;endArrow=classic;html=1;" edge="1" parent="1" source="0x4nhcebt7O5hJBVqaJ_-13" target="0x4nhcebt7O5hJBVqaJ_-14">
          <mxGeometry width="50" height="50" relative="1" as="geometry">
            <mxPoint x="630" y="500" as="sourcePoint" />
            <mxPoint x="680" y="450" as="targetPoint" />
          </mxGeometry>
        </mxCell>
        <mxCell id="0x4nhcebt7O5hJBVqaJ_-16" value="PRPS" style="shape=cylinder3;whiteSpace=wrap;html=1;boundedLbl=1;backgroundOutline=1;size=15;" vertex="1" parent="1">
          <mxGeometry x="729" y="540" width="60" height="80" as="geometry" />
        </mxCell>
        <mxCell id="0x4nhcebt7O5hJBVqaJ_-17" value="" style="shape=flexArrow;endArrow=classic;html=1;" edge="1" parent="1" source="0x4nhcebt7O5hJBVqaJ_-16" target="0x4nhcebt7O5hJBVqaJ_-14">
          <mxGeometry width="50" height="50" relative="1" as="geometry">
            <mxPoint x="679" y="540" as="sourcePoint" />
            <mxPoint x="729" y="490" as="targetPoint" />
          </mxGeometry>
        </mxCell>
        <mxCell id="0x4nhcebt7O5hJBVqaJ_-18" value="ZCFIGLB_AccountingDoc" style="rounded=1;whiteSpace=wrap;html=1;" vertex="1" parent="1">
          <mxGeometry x="350" y="240" width="170" height="60" as="geometry" />
        </mxCell>
        <mxCell id="0x4nhcebt7O5hJBVqaJ_-19" value="" style="shape=flexArrow;endArrow=classic;html=1;exitX=0.703;exitY=0.027;exitDx=0;exitDy=0;exitPerimeter=0;" edge="1" parent="1" source="0x4nhcebt7O5hJBVqaJ_-9" target="0x4nhcebt7O5hJBVqaJ_-18">
          <mxGeometry width="50" height="50" relative="1" as="geometry">
            <mxPoint x="270" y="370" as="sourcePoint" />
            <mxPoint x="354.5" y="300" as="targetPoint" />
          </mxGeometry>
        </mxCell>
        <mxCell id="0x4nhcebt7O5hJBVqaJ_-20" value="" style="shape=flexArrow;endArrow=classic;html=1;exitX=0.216;exitY=0;exitDx=0;exitDy=0;exitPerimeter=0;" edge="1" parent="1" source="0x4nhcebt7O5hJBVqaJ_-14" target="0x4nhcebt7O5hJBVqaJ_-18">
          <mxGeometry width="50" height="50" relative="1" as="geometry">
            <mxPoint x="609" y="360" as="sourcePoint" />
            <mxPoint x="659" y="310" as="targetPoint" />
          </mxGeometry>
        </mxCell>
        <mxCell id="0x4nhcebt7O5hJBVqaJ_-21" value="ZQFIGLB_AccountingDoc" style="rounded=1;whiteSpace=wrap;html=1;" vertex="1" parent="1">
          <mxGeometry x="348" y="80" width="174" height="60" as="geometry" />
        </mxCell>
        <mxCell id="0x4nhcebt7O5hJBVqaJ_-22" value="" style="shape=flexArrow;endArrow=classic;html=1;" edge="1" parent="1" source="0x4nhcebt7O5hJBVqaJ_-18" target="0x4nhcebt7O5hJBVqaJ_-21">
          <mxGeometry width="50" height="50" relative="1" as="geometry">
            <mxPoint x="570" y="200" as="sourcePoint" />
            <mxPoint x="620" y="150" as="targetPoint" />
          </mxGeometry>
        </mxCell>
        <mxCell id="0x4nhcebt7O5hJBVqaJ_-23" value="" style="endArrow=classic;html=1;entryX=0;entryY=0.5;entryDx=0;entryDy=0;entryPerimeter=0;" edge="1" parent="1" target="0x4nhcebt7O5hJBVqaJ_-13">
          <mxGeometry width="50" height="50" relative="1" as="geometry">
            <mxPoint x="399" y="580" as="sourcePoint" />
            <mxPoint x="500" y="580" as="targetPoint" />
            <Array as="points">
              <mxPoint x="470" y="580" />
            </Array>
          </mxGeometry>
        </mxCell>
        <mxCell id="0x4nhcebt7O5hJBVqaJ_-24" value="EBELN" style="text;html=1;align=center;verticalAlign=middle;resizable=0;points=[];autosize=1;strokeColor=none;" vertex="1" parent="1">
          <mxGeometry x="429" y="560" width="50" height="20" as="geometry" />
        </mxCell>
        <mxCell id="0x4nhcebt7O5hJBVqaJ_-25" value="EBELP" style="text;html=1;align=center;verticalAlign=middle;resizable=0;points=[];autosize=1;strokeColor=none;" vertex="1" parent="1">
          <mxGeometry x="429" y="585" width="50" height="20" as="geometry" />
        </mxCell>
        <mxCell id="0x4nhcebt7O5hJBVqaJ_-26" value="" style="endArrow=classic;html=1;" edge="1" parent="1">
          <mxGeometry width="50" height="50" relative="1" as="geometry">
            <mxPoint x="569" y="580" as="sourcePoint" />
            <mxPoint x="729" y="580" as="targetPoint" />
          </mxGeometry>
        </mxCell>
        <mxCell id="0x4nhcebt7O5hJBVqaJ_-27" value="PS_PSP_PNR" style="text;html=1;align=center;verticalAlign=middle;resizable=0;points=[];autosize=1;strokeColor=none;" vertex="1" parent="1">
          <mxGeometry x="599" y="580" width="90" height="20" as="geometry" />
        </mxCell>
        <mxCell id="0x4nhcebt7O5hJBVqaJ_-28" value="Belegsegment&lt;br&gt;fÃ¼r Buchhaltung" style="text;html=1;align=center;verticalAlign=middle;resizable=0;points=[];autosize=1;strokeColor=none;" vertex="1" parent="1">
          <mxGeometry x="364" y="510" width="100" height="30" as="geometry" />
        </mxCell>
        <mxCell id="0x4nhcebt7O5hJBVqaJ_-29" value="Belegkopf&lt;br&gt;fÃ¼r Buchhaltung" style="text;html=1;align=center;verticalAlign=middle;resizable=0;points=[];autosize=1;strokeColor=none;" vertex="1" parent="1">
          <mxGeometry x="99" y="630" width="100" height="30" as="geometry" />
        </mxCell>
        <mxCell id="0x4nhcebt7O5hJBVqaJ_-30" value="Kontierung im&lt;br&gt;Einkaufsbeleg" style="text;html=1;align=center;verticalAlign=middle;resizable=0;points=[];autosize=1;strokeColor=none;" vertex="1" parent="1">
          <mxGeometry x="499" y="630" width="90" height="30" as="geometry" />
        </mxCell>
        <mxCell id="0x4nhcebt7O5hJBVqaJ_-31" value="PSP-Element" style="text;html=1;align=center;verticalAlign=middle;resizable=0;points=[];autosize=1;strokeColor=none;" vertex="1" parent="1">
          <mxGeometry x="719" y="630" width="90" height="20" as="geometry" />
        </mxCell>
        <mxCell id="0x4nhcebt7O5hJBVqaJ_-32" value="BELNR" style="text;html=1;align=center;verticalAlign=middle;resizable=0;points=[];autosize=1;strokeColor=none;" vertex="1" parent="1">
          <mxGeometry x="224" y="585" width="60" height="20" as="geometry" />
        </mxCell>
        <mxCell id="0x4nhcebt7O5hJBVqaJ_-33" value="1...n" style="text;html=1;align=center;verticalAlign=middle;resizable=0;points=[];autosize=1;strokeColor=none;" vertex="1" parent="1">
          <mxGeometry x="234" y="560" width="40" height="20" as="geometry" />
        </mxCell>
        <mxCell id="0x4nhcebt7O5hJBVqaJ_-34" value="SAP Consumption" style="text;html=1;resizable=0;autosize=1;align=center;verticalAlign=middle;points=[];fillColor=none;strokeColor=none;rounded=0;" vertex="1" parent="1">
          <mxGeometry x="30" y="30" width="110" height="20" as="geometry" />
        </mxCell>
        <mxCell id="0x4nhcebt7O5hJBVqaJ_-35" value="BSET" style="shape=cylinder3;whiteSpace=wrap;html=1;boundedLbl=1;backgroundOutline=1;size=15;" vertex="1" parent="1">
          <mxGeometry x="339" y="690" width="60" height="80" as="geometry" />
        </mxCell>
        <mxCell id="0x4nhcebt7O5hJBVqaJ_-37" value="" style="endArrow=none;html=1;rounded=0;exitX=0.5;exitY=1;exitDx=0;exitDy=0;exitPerimeter=0;" edge="1" parent="1" source="0x4nhcebt7O5hJBVqaJ_-8" target="0x4nhcebt7O5hJBVqaJ_-35">
          <mxGeometry relative="1" as="geometry">
            <mxPoint x="90" y="690" as="sourcePoint" />
            <mxPoint x="250" y="690" as="targetPoint" />
          </mxGeometry>
        </mxCell>
        <mxCell id="0x4nhcebt7O5hJBVqaJ_-38" value="1...1" style="text;html=1;align=center;verticalAlign=middle;resizable=0;points=[];autosize=1;strokeColor=none;rotation=90;" vertex="1" parent="1">
          <mxGeometry x="359" y="640" width="40" height="20" as="geometry" />
        </mxCell>
        <mxCell id="0x4nhcebt7O5hJBVqaJ_-39" value="BUZEI" style="text;html=1;align=center;verticalAlign=middle;resizable=0;points=[];autosize=1;strokeColor=none;rotation=90;" vertex="1" parent="1">
          <mxGeometry x="329" y="640" width="50" height="20" as="geometry" />
        </mxCell>
        <mxCell id="0x4nhcebt7O5hJBVqaJ_-41" value="Belegsegment &lt;br&gt;Steuerdaten" style="text;html=1;align=center;verticalAlign=middle;resizable=0;points=[];autosize=1;strokeColor=none;" vertex="1" parent="1">
          <mxGeometry x="399" y="715" width="90" height="30" as="geometry" />
        </mxCell>
      </root>
    </mxGraphModel>
  </diagram>
</mxfile>
